HIERARCHY
ROOT Hips
{
	OFFSET 0.000000 0.000000 0.000000
	CHANNELS 6 Xposition Yposition Zposition Zrotation Yrotation Xrotation 
	JOINT LHipJoint
	{
		OFFSET 0.000000 0.000000 0.000000
		CHANNELS 3 Zrotation Yrotation Xrotation
		JOINT LeftUpLeg
		{
			OFFSET 1.363060 -1.794630 0.839290
			CHANNELS 3 Zrotation Yrotation Xrotation
			JOINT LeftLeg
			{
				OFFSET 2.448110 -6.726130 0.000000
				CHANNELS 3 Zrotation Yrotation Xrotation
				JOINT LeftFoot
				{
					OFFSET 2.562200 -7.039590 0.000000
					CHANNELS 3 Zrotation Yrotation Xrotation
					JOINT LeftToeBase
					{
						OFFSET 0.157640 -0.433110 2.322550
						CHANNELS 3 Zrotation Yrotation Xrotation
						End Site
						{
							OFFSET 0.000000 0.000000 0.000000
						}
					}
				}
			}
		}
	}
	JOINT RHipJoint
	{
		OFFSET 0.000000 0.000000 0.000000
		CHANNELS 3 Zrotation Yrotation Xrotation
		JOINT RightUpLeg
		{
			OFFSET -1.305520 -1.794630 0.839290
			CHANNELS 3 Zrotation Yrotation Xrotation
			JOINT RightLeg
			{
				OFFSET -2.542530 -6.985550 0.000000
				CHANNELS 3 Zrotation Yrotation Xrotation
				JOINT RightFoot
				{
					OFFSET -2.568260 -7.056230 0.000000
					CHANNELS 3 Zrotation Yrotation Xrotation
					JOINT RightToeBase
					{
						OFFSET -0.164730 -0.452590 2.363150
						CHANNELS 3 Zrotation Yrotation Xrotation
						End Site
						{
							OFFSET 0.000000 0.000000 0.000000
						}
					}
				}
			}
		}
	}
}
MOTION
Frames: 22
Frame Time: 0.008333
8.804268 15.693906 1.365031 -137.545944 -85.870119 160.618920 -8.240081 -2.130301 -0.170455 -8.992669 -2.039380 -65.972958 -1.042866 2.847119 43.536876 2.077625 9.413380 -4.204369 1.139700 -0.000001 -24.117100 10.689188 -1.071988 -6.292862 10.393843 -13.033718 -21.379816 2.703832 -3.717862 52.118829 -0.105569 7.484529 -24.806714 -1.464500 0.000000 -58.296800
8.660726 15.677586 1.381213 -136.858658 -85.848556 159.801718 -8.255397 -2.131108 -0.259125 -9.007496 -1.997469 -65.982711 -0.949065 2.957891 44.980016 2.077034 9.417911 -4.487629 1.067900 -0.000000 -22.918600 10.789886 -1.112772 -6.273642 9.992254 -13.084958 -21.005501 2.565629 -3.772842 52.634298 0.005182 7.710729 -23.679297 -1.486400 -0.000000 -60.656201
8.517243 15.664023 1.397650 -135.664849 -85.864179 158.480533 -8.266066 -2.135479 -0.344951 -9.040582 -1.982951 -65.915529 -0.873934 3.050052 46.326882 2.083179 9.413453 -5.054085 0.947800 0.000000 -21.735100 10.888502 -1.163277 -6.257957 9.614535 -13.152967 -20.631711 2.429405 -3.829251 53.105591 0.106356 7.899082 -22.511444 -1.481300 0.000001 -62.884100
8.373931 15.653134 1.414606 -133.905532 -85.906163 156.595815 -8.274402 -2.146673 -0.427304 -9.078991 -1.989483 -65.769906 -0.814229 3.123445 47.567455 2.096552 9.411964 -5.844454 0.790500 -0.000001 -20.657800 10.983526 -1.225815 -6.244745 9.270231 -13.234129 -20.258792 2.296774 -3.887467 53.530356 0.196386 8.043997 -21.313003 -1.449400 0.000000 -64.966600
8.230640 15.644860 1.432166 -131.655625 -85.961254 154.226625 -8.283325 -2.165174 -0.504755 -9.114307 -2.010722 -65.550793 -0.767461 3.179476 48.698801 2.117569 9.422176 -6.800859 0.605700 0.000000 -19.688300 11.073042 -1.300093 -6.232146 8.961400 -13.323369 -19.894411 2.166822 -3.947341 53.914698 0.274992 8.142304 -20.079608 -1.390800 -0.000001 -66.939300
8.087578 15.639108 1.450415 -129.048418 -86.016025 151.506920 -8.295910 -2.191021 -0.576185 -9.137949 -2.041096 -65.266713 -0.730269 3.220212 49.722666 2.146324 9.452935 -7.855207 0.404100 0.000001 -18.866100 11.154658 -1.384249 -6.218469 8.689340 -13.412237 -19.547813 2.037622 -4.008530 54.269006 0.342224 8.192709 -18.803810 -1.306700 -0.000000 -68.815700
7.944851 15.635790 1.469259 -126.286031 -86.057201 148.643738 -8.314450 -2.221976 -0.640487 -9.143056 -2.075126 -64.930715 -0.699441 3.248671 50.644840 2.182309 9.510382 -8.941854 0.195900 -0.000000 -18.223500 11.226878 -1.474417 -6.201750 8.453104 -13.489366 -19.230536 1.906001 -4.070019 54.608106 0.398406 8.195853 -17.473133 -1.198301 0.000000 -70.599299
7.802739 15.634784 1.488618 -123.630959 -86.073177 145.902262 -8.339348 -2.253640 -0.696841 -9.124852 -2.108517 -64.557526 -0.672042 3.268343 51.473866 2.224644 9.599154 -10.003813 -0.010200 0.000000 -17.778400 11.290022 -1.564417 -6.180242 8.250632 -13.542525 -18.956120 1.767945 -4.130312 54.950476 0.443915 8.154455 -16.072990 -1.066901 0.000000 -72.277500
7.661555 15.636004 1.508212 -121.326358 -86.056596 143.529226 -8.368910 -2.280825 -0.745002 -9.081420 -2.138158 -64.162840 -0.645844 3.282564 52.219382 2.271944 9.720325 -10.998041 -0.207600 -0.000000 -17.527700 11.346585 -1.647561 -6.152474 8.079652 -13.560394 -18.738458 1.619467 -4.187998 55.316433 0.478808 8.071535 -14.589418 -0.914100 -0.000000 -73.819400
7.521723 15.639366 1.527832 -119.548664 -86.004350 141.703974 -8.400331 -2.299135 -0.785614 -9.013749 -2.162045 -63.759748 -0.619448 3.294009 52.891360 2.322632 9.871774 -11.898943 -0.392001 0.000000 -17.447000 11.399965 -1.717818 -6.117173 7.938211 -13.532279 -18.590615 1.457795 -4.242010 55.725162 0.502497 7.949229 -13.017226 -0.742100 0.000000 -75.167800
7.383564 15.644815 1.547095 -118.401183 -85.920505 140.531725 -8.430409 -2.304756 -0.818511 -8.927424 -2.182730 -63.359513 -0.592549 3.304424 53.496713 2.375462 10.049873 -12.696915 -0.561600 -0.000000 -17.494800 11.454132 -1.770051 -6.074285 7.821049 -13.457775 -18.528762 1.280405 -4.292131 56.197849 0.514194 7.789084 -11.346459 -0.552599 -0.000000 -76.288700
7.247577 15.652215 1.565784 -117.884910 -85.809193 140.013748 -8.457148 -2.296935 -0.845926 -8.828749 -2.198684 -62.968358 -0.565822 3.315018 54.041670 2.428968 10.246894 -13.397688 -0.717100 0.000000 -17.623100 11.510531 -1.801410 -6.024206 7.727280 -13.331512 -18.559408 1.088185 -4.338141 56.748062 0.511833 7.586566 -9.600149 -0.350600 -0.000001 -77.083999
7.113948 15.661527 1.583635 -117.939047 -85.678931 140.090401 -8.479809 -2.275623 -0.868732 -8.726884 -2.211604 -62.588728 -0.540788 3.326076 54.527506 2.482335 10.455437 -14.016970 -0.860700 0.000000 -17.785600 11.569432 -1.810553 -5.968314 7.653333 -13.158221 -18.690780 0.882837 -4.380345 57.388113 0.493486 7.333956 -7.802564 -0.142000 -0.000000 -77.488900
6.983103 15.672622 1.600483 -118.473686 -85.538035 140.668405 -8.498635 -2.242046 -0.888500 -8.631759 -2.221291 -62.219937 -0.519465 3.337627 54.954226 2.534892 10.667189 -14.576921 -0.995999 0.000000 -17.944100 11.629521 -1.797249 -5.909117 7.596610 -12.945859 -18.926029 0.667603 -4.419283 58.126404 0.457180 7.017384 -5.994849 0.063600 -0.000000 -77.440700
6.855108 15.685409 1.616226 -119.372730 -85.394668 141.630180 -8.514894 -2.198225 -0.906425 -8.551949 -2.226995 -61.858048 -0.503918 3.349138 55.319154 2.586277 10.874730 -15.100652 -1.126800 0.000000 -18.072700 11.688410 -1.762901 -5.849562 7.555525 -12.706030 -19.264898 0.447086 -4.455688 58.965538 0.401411 6.617426 -4.231475 0.253300 -0.000000 -76.890500
6.730137 15.699803 1.630873 -120.514486 -85.255706 142.849108 -8.530283 -2.147006 -0.923850 -8.494048 -2.226848 -61.496416 -0.495924 3.359685 55.618557 2.636104 11.071150 -15.608648 -1.256700 -0.000000 -18.157100 11.743292 -1.710082 -5.792990 7.530062 -12.452086 -19.703134 0.226267 -4.490802 59.903786 0.325369 6.109852 -2.574419 0.411000 0.000000 -75.813300
6.608209 15.715659 1.644552 -121.781016 -85.126527 144.203248 -8.546332 -2.091372 -0.941933 -8.462034 -2.218130 -61.128541 -0.496668 3.368210 55.849590 2.684154 11.251447 -16.116343 -1.388500 -0.000000 -18.194000 11.791872 -1.642088 -5.743016 7.521591 -12.200147 -20.235295 0.009980 -4.526275 60.935144 0.229027 5.469049 -1.086500 0.519600 -0.000001 -74.219300
6.489198 15.732866 1.657407 -123.085472 -85.011420 145.601466 -8.564109 -2.033479 -0.961308 -8.458590 -2.198316 -60.748108 -0.506816 3.373678 56.009718 2.730153 11.411906 -16.631881 -1.523200 0.000001 -18.188500 11.832701 -1.562061 -5.702604 7.530165 -11.965740 -20.854229 -0.197808 -4.563761 62.049643 0.112910 4.671455 0.173310 0.563900 -0.000001 -72.150700
6.373019 15.751343 1.669706 -124.315529 -84.912167 146.926397 -8.584549 -1.976644 -0.983014 -8.480915 -2.163486 -60.349160 -0.525981 3.374874 56.099037 2.773444 11.549308 -17.155281 -1.660500 0.000000 -18.153300 11.864745 -1.474241 -5.674225 7.560729 -11.761518 -21.550609 -0.393770 -4.605277 63.231735 -0.022342 3.698482 1.157529 0.533401 0.000000 -69.680100
6.259436 15.770915 1.681704 -125.404358 -84.829422 148.109424 -8.607770 -1.922461 -1.007355 -8.525787 -2.110951 -59.929395 -0.553310 3.371150 56.120259 2.813354 11.661648 -17.680519 -1.798400 -0.000000 -18.104900 11.888142 -1.381513 -5.659362 7.615671 -11.598073 -22.316466 -0.575792 -4.652203 64.463510 -0.176010 2.543152 1.833772 0.426600 0.000001 -66.899800
6.148193 15.791513 1.693608 -126.290550 -84.762601 149.086506 -8.633677 -1.872380 -1.034609 -8.588005 -2.038421 -59.487486 -0.587329 3.362039 56.078049 2.849009 11.747817 -18.195888 -1.933400 0.000000 -18.061700 11.903313 -1.286522 -5.658234 7.698137 -11.480540 -23.142533 -0.742420 -4.705454 65.723197 -0.347381 1.212156 2.186587 0.251800 0.000000 -63.905900
6.039196 15.812992 1.705629 -126.935556 -84.710328 149.815918 -8.661822 -1.827433 -1.065019 -8.661500 -1.944520 -59.025702 -0.626257 3.347655 55.980214 2.879428 11.807008 -18.688006 -2.061500 0.000001 -18.040400 11.910895 -1.190920 -5.670244 7.810701 -11.409907 -24.020633 -0.892700 -4.765369 66.987516 -0.535342 -0.271191 2.217797 0.027499 0.000000 -60.786300
